<?xml version="1.0" encoding="UTF-8"?>
<svg id="Layer_1" data-name="Layer 1" xmlns="http://www.w3.org/2000/svg" viewBox="0 0 1946 2208">
  <defs>
    <style>
      .cls-1 {
        fill: #fff;
      }
    </style>
  </defs>
  <path class="cls-1" d="M0,2208V0h1946v2208H0ZM885.09,192.84l20.9-31.87c-10.99-2.14-18.56-2.64-29.96,1.03,7.68,2.37,12.28,2.66,20.72,3.25l-21.65,31.48-13.03-34.13c-.61-1.59-3.89-4.11-5.07-3.52s-3.25,2.88-3.8,4.38l-12.83,35.36c6.61-.1,7.86-3.71,9.74-9.77l15.61-.23,4.34,9.7c12.54.36,22.69.89,35.93-2.17-7.96-2.52-12.42-2.57-20.9-3.5ZM916.9,195.25l-.35-35.14-6.07.41.3,36.47c.02,2.05,6.14.59,6.12-1.74ZM962.82,199.16l1.93-36.5c.07-1.37-4.99-4.09-5.64-3.02l-1.92,3.16-12.32,22.37-14.56-26.48-5.36,4.58.81,35.45,4.88.19.57-26.65,13.61,23.05,14.11-23.92c.57,9.85-1.62,18.54,3.89,27.77ZM996.59,160.27l-.02,24.33c0,4.41-5.05,9.33-9.33,9.19-3.02-.1-8.4-4.86-8.39-8.11l.06-22.91-5.99-3.88-.25,24.83c-.09,8.79,6.33,15.41,14.44,15.59,6.68.15,15.19-5.02,15.24-13.04l.16-26.19-5.92.19ZM1023.8,196.96l.82-32.18c7.23.9,10.28.73,11.37-5.19l-29.72.31-.26,3.81,11.94,2.24.13,31.03c0,1.03,5.68,1.01,5.71-.02ZM1070.57,160.19c-4.13.39-6.69.64-6,.57l-.31,15.26-17.62-.02-.06-16.42-6.18.65.72,38.67,4.82-.14,1.09-17.43,17.23-.15.56,12.84.18,4.24c.04.97,4.02,1.43,4.39.53s1.25-4.01,1.25-5.37l-.07-33.25ZM1358.83,1576.98c97.84-63.37,179.32-147.68,237.66-248.63,67.98-117.63,103.75-250.21,99.54-386.11-6.56-211.65-102.71-411.65-265.85-546.77-82.58-68.4-178.64-119.6-282.85-147.11-165.22-43.61-341.05-30-496.94,39.83-182.64,81.81-321.74,230.71-393.05,417.13-27.5,71.89-41.45,146.16-45.34,222.76-13.95,274.58,135.23,532.79,371.86,668.2,244.7,140.03,537.77,134.34,774.98-19.3ZM528.17,305.74l7.47-13.49c-9.43-9,.96-23.71-7.58-27.91-8.88,10.46-14.52,18.08-21.64,29.5l19.66,1.6,2.08,10.29ZM545.12,303.52c7.92,5.51,16.54.11,19.51-5.99,3.12-6.41,1.1-15.16-7.12-16.94l-7.82-1.69c-1.31-.28.33-6.06.63-7.14l15.98-3.86c-8.68-2.36-12.71-2.39-20.5-2.38l-2.81,19.69,9.73-.44c2.45-.11,6.98,2.56,7.14,4.95.18,2.81-.62,7.63-2.34,9.3s-7.82,1.07-10.21.31l-4.07-1.29c-.78-.25-2.18,2.66-1.51,3.13l3.39,2.36ZM596.35,297.69c5.89-15.94.29-31.69-11.4-32.34-4.59-.26-11.3,3.61-12.88,8.71-4.64,14.98.1,30.61,11.07,31.53,4.29.36,11.37-2.91,13.21-7.9ZM1314.96,304.89l23.49-.06-9.22-6.78-.31-33.21c-5.98,2.27-12.83,7.33-14.94,10.78-.64,1.05,3.36,3.2,4.43,2.6l4.96-2.78-.22,24.84c-4.96.11-7.17,1.09-8.2,4.63ZM1365.77,299.23c4.64-9.75,4-18.6.15-27.63-1.71-4.03-8.59-6.54-12.86-6.13-10.94,1.05-16.03,17.41-9.36,32.98,1.51,3.52,7.85,7.29,11.2,7.29,2.98,0,9.39-3.43,10.86-6.51ZM1395.78,300.84c5.2-8.86,5.52-19.09,1.49-28.28-2.04-4.64-9.44-7.8-14-7.07-10.42,1.68-14.17,16.39-9.92,31.49,1.05,3.71,6.85,8.06,10.19,8.65,2.97.53,10.4-1.68,12.23-4.8ZM217.04,576.86c-.02,4.95,7.63,11.84,15.19,9.92,4.38-1.11,9.5-4.7,10.8-8.99.97-3.21-1.94-9.14-4.07-12.56,1.21-2.69,3.63-8.82,3.09-11.87s-6.16-6.65-10.07-7.51c-6.4-1.42-13.66,5.27-14.11,9.55-.12,1.14,3.83,3.1,4.5,2.17l2.34-3.27c1.19-1.66,5.88-2.93,7.89-2.61s4.44,5,3.44,6.77c-.8,1.41-3.12,3.59-4.49,4.44l-3.86,2.4c-.71.44,1.43,1.86,2.68,2.32,2.93,1.09,6.68,4.54,6.79,7.16.1,2.45-3.58,6.94-6.02,7.25-7.35.95-8.47-10.75-14.09-5.15ZM271.37,581.12c4.64-9.79,4.44-18.72.88-27.52-1.92-4.75-8.41-8-13.07-7.52-11.18,1.15-14.55,14.87-11.56,30.62.76,3.99,6.34,8.86,9.82,9.78s12.16-1.64,13.92-5.36ZM300.87,582.39c6.47-10.26,6.04-20.89,1.15-30.81-1.61-3.26-9.09-6.23-12.58-5.59-3,.55-8.35,4.48-9.62,7.69-5.2,13.11-2.73,29.31,7.85,32.61,3.22,1,11.26-.82,13.2-3.9ZM1608.17,585.82l20.97.51c.82.02.76-4.3-.05-4.43l-5.45-.9-.71-36.33-14.02,9.86c-1.06.74.54,5.66,1.7,4.97l6.75-3.99-.23,24.59-8.96,5.72ZM1644.48,586.36c3.93,1.46,12.73-1.31,15.25-5.41,2.13-3.48,2.76-11.63.02-15.55-2.09-3-8.62-4.64-14.43-5.51-.5.05-1.17-6.66.82-6.95l7.84-1.12c1.48-.21,5.84.38,5.8-.93l-.14-4.47-18.23.36-2.99,19.24,11.91.21c2.74.05,5.85,5.78,5.19,8.39-.56,2.25-2.94,7.53-5.2,7.09l-10.46-2.04c-1.25-.24-2.45,4.07-1.31,4.49l5.92,2.2ZM1692.03,553.7c-1.36-3.75-7.66-7.73-11.08-7.79s-10.62,3.41-11.98,6.6c-3.92,9.25-3.91,17.92-.17,26.89,1.94,4.67,9.45,8.02,13.95,7.3,10.19-1.63,14.77-17.8,9.28-33.01ZM133.04,980.5l-.79-5.44-14.84-.89,11.65-13.03c5.09-5.69,4.69-15.42-1.99-19.13-5.05-2.81-15.19-1.61-17.66,4.9l-1.51,3.98c-.31.82,2.8,2.61,3.35,1.92l2.81-3.53c1.83-2.3,7.86-4.24,10.25-2.47s2.1,9.14.19,11.37l-18.85,22.1,27.4.22ZM149.27,981.22c6.69.52,12.69-2.74,14.07-7.09,1.66-5.2-.93-11-4.12-14.78,1.4-2.65,3.75-8.94,3.29-12.21s-6.78-6.69-10.66-6.74c-4.37-.06-10.85,2.23-11.95,5.37s.68,10.81,1.28,14.12c-1.55,3.8-3.98,10.6-3.04,14.41.75,3.03,6.72,6.58,11.13,6.92ZM193.75,973.08c2.83-9.33,2.75-16.98.07-25.21-1.61-4.96-9.49-8.06-14.31-7.39-10.85,1.5-13.44,15.1-10.54,30.65,1.03,5.54,7.26,9.83,12.36,10.22,3.68.28,11.03-3.67,12.42-8.27ZM1714.72,980.08l19.03.4c1.11.02,2.25-4.59,1.15-4.58l-6.5.03-.58-36.2c-6.54,2.29-12.04,6.78-15.59,11.58,1.23,1.28,4.31,2.55,5.39,1.75l4.32-3.19-.2,25.45c-4.11-.08-7.61,1.41-7.03,4.77ZM1756.34,954.98c-2.09-.33-7.04-.49-6.9-1.91l.58-5.98,16.1-2.65c-6.62-5.43-13.17-4.33-20.06-2.34l-3.02,18.28,13.36.04c3.31.01,4.98,8.62,2.86,11.77-1.84,2.74-7.89,3.79-11.44,2.82l-4.57-1.25c-.85-.23-2.8,2.85-2.04,3.31l3.51,2.16c7.63,4.7,16.96.89,19.92-5.83,3-6.82,1.41-16.9-8.3-18.43ZM1790.71,979.71c8.65-5.72,8.77-16.63,7.77-25.85-.81-7.45-6.57-13.14-13.56-13.38-5.46-.19-12.07,4.95-13.3,11.28-1.49,7.63-1.24,16.01,1.83,22.5,2.81,5.96,11.43,9.31,17.27,5.45ZM215.12,1373.83c13.31,1.35,18.93,1.25,29.01-.29-4.86-5.88-7.99-4.78-16.3-5.34l11.13-12.94c5.77-6.71,3.3-16.22-3.21-19.86s-16.84,2.09-18.08,7.65c-.24,1.06,2.66,4.84,3.28,4.07l3.04-3.78c1.76-2.18,7.52-3.82,9.91-2.45,2.04,1.18,2.45,8.3.99,10.36l-19.77,22.57ZM266.71,1375.45l6.54-13.47c-3.42-4.27-4.36-11.04-4.21-17.94l.18-8.03c.03-1.14-2.32-1.3-5.25-1.94l-20.69,29.94,20.31,1.22c.79,5.02,2.5,10.76,3.13,10.23ZM302.44,1341.31c-1.5-3.51-7.95-7.26-11.3-7.16s-10.14,3.86-11.5,7.13c-3.75,8.99-3.88,18.6.02,27.16,2.31,5.07,9.88,8.05,14.46,6.79,10.84-2.98,14.46-19.53,8.32-33.93ZM1612.51,1375.11l18.91-1.55-7.7-5.93-.75-34.34-15.2,11.19c.77,1.41,3.5,4.08,4.69,3.27l4.95-3.4-.26,25.33-7.28.99c-.82.11,1.83,4.51,2.65,4.44ZM1643.24,1374.7c5.02,2,13.42-.65,15.92-4.68,2.97-4.78,3.31-12.42-.11-16.31-3.24-3.68-10.02-4.66-14.66-4.96.03-2.5.01-7.63,1.61-7.63h6.56c3.54-.02,6.69-1.24,9.08-5.81l-20.62-.62-2.87,19.93,8.34-.13c2.72-.04,8.33,2.53,8.67,5.14.3,2.29-.65,6.95-2.27,8.52s-6.89,1.02-9.38.7l-5.69-.73c-1.1-.14-1.95,3.65-.92,4.06l6.33,2.52ZM1689.57,1370.8c6.67-9.85,5.98-21.45.56-31.26-1.86-3.38-8.85-5.73-12.54-5.08-10.98,1.95-15.04,20.5-8.73,34.64,3.35,7.5,15.95,8.73,20.71,1.7ZM533.67,1660.15c-.41-3.27-.89-6.32-1.69-6.34l-14.1-.34,11.27-12.25c5.42-5.9,5.33-15.82-1.18-19.96-5.96-3.79-15.98-1.34-19.04,5.17-.56,1.19-1.1,6.1.05,5.72s4.07-1.64,4.89-2.61c2.09-2.5,8.11-5.02,10.71-3.19,2.11,1.49,2.24,8.9.52,10.9l-18.97,22.07,27.54.84ZM558.96,1658.59l4.84-11.12c-2.73-5.25-3.85-12.06-3.7-19.36l.15-7.09c.03-1.35-5.8-1.22-6.51-.17l-19,28.03,20.11,1.85.09,7.57c.01,1.15,3.55,1.01,4.02.29ZM594.89,1629.05c-1.45-5.24-7.35-9.39-11.93-9.57-4.83-.19-11.12,3.35-12.92,8.54-2.71,7.79-2.89,16.46-.09,24.11,1.85,5.06,8.45,8.62,13.03,8.52,10.74-.24,16.51-15.02,11.92-31.61ZM1338.44,1659.87c-5.78-10.66-9.68-4.89-17.91-6.34l11.29-12.29c3.14-3.42,5.12-10.59,3.05-15.24-1.57-3.55-7.71-6.48-11.86-6.57-3.87-.09-10.33,4.3-11.67,7.94-.46,1.25,2.42,5.84,3.2,4.85l2.75-3.47c1.54-1.94,6.82-3.51,9.29-3.03s4.18,7.52,2.33,9.72l-20.05,23.86,29.58.56ZM1355.08,1660.37c5.49-.22,11.02-4.3,12.08-8.34.91-3.45-1.87-9.36-4.26-12.67,2.86-5.12,4.18-13.06-.54-16.72-5.56-4.31-12.68-3.68-17.81.92-4.31,3.86-.36,11.13-.23,15.62-1.02,3.75-5.07,10.64-3.03,14.3,2.33,4.19,7.45,7.14,13.78,6.88ZM1397.75,1650.61c4.26-16.64-1.02-31.21-12.76-31.17-4.48.02-10.96,4.1-12.54,9.05-2.41,7.57-2.31,15.46.01,22.96,1.72,5.54,7.59,9.22,12.52,9.26s11.13-3.71,12.77-10.1ZM902.92,1759.69l29.23.19c-3.71-9.64-9.12-5.54-17.43-6l13.25-15.93c4.68-5.63,1.42-14.38-4-16.94-5.94-2.81-14.73.03-17.41,4.88-.72,1.31-.88,6.63.33,6.23,8.03-2.7,6.45-7.71,13.67-6.52,2.39.39,3.9,7.36,2.31,9.34l-19.95,24.76ZM939.29,1758.87c.9.59,6.35.75,6.84-.31l17.45-37.46-24.96-1.09c-.98-.04-3.93,2.35-3.46,3.06s2.33,2.83,3.19,2.87l16.33.71-15.39,32.22ZM991.81,1750.53c2.19-8.83,1.61-17.05-1.83-24.96-1.28-2.95-7.83-6.03-10.97-5.99-12.46.15-17.22,17.16-12.54,31.72,1.87,5.82,7.36,9.38,12.54,9.51s11.15-3.62,12.8-10.28ZM375.69,2010.78c37.82-18.99,56.62-56.13,54.19-96.85-2.06-34.48-19.14-63.48-49.8-80.37-33.95-18.71-75.44-19.03-110.57-2.04-33.71,16.3-53.31,49.17-54.41,86.48-1.25,42.41,21.92,79.48,61.37,95.76,31.59,13.04,67.75,12.82,99.22-2.98ZM839.51,1991.38c36.36-38.37,37.59-99.53,1.96-138.77-42.25-46.52-127.38-43.86-166.68,4.24-26.17,32.03-29.63,77.99-9.74,114.07,34.86,63.21,129.59,67.81,174.46,20.46ZM1708.01,1973.04c25.62-43.38,16.04-99.35-22.73-130.2-38.05-30.28-91.73-30.91-131.28-2.51-35.96,25.82-48.8,72.21-34.58,114.33,13.16,38.98,51.01,66.26,94.66,67.26,37.73.87,73.89-14.95,93.93-48.88ZM652.45,2019.37l-84.66-109.47,80.59-87.63-54.71.11-83.91,91.19-.6-91.51-46.49.11-.46,197.43,47.07.07.31-49.08,26.68-28.17,60.69,77.47,55.5-.52ZM1075.26,2018.78l-.17-196.56-23.62-.02-.38,154.41-124.32-153.66-20.08-.81.04,197.37,23.79.03.42-153.18,123.79,152.76,20.52-.34ZM1258.57,1928.82l-.14-20.22h-101.28s0-65.32,0-65.32l114.19-.27-.71-20.85-137.95-.06-.04,197.51h142.9s-.26-20.8-.26-20.8l-118.07.07-.1-69.95,101.45-.11ZM1486.49,1971.08c1.69-25.15-11.37-45-35.49-54.03,14.68-8.44,23.96-21.79,25.47-36.42,1.82-17.68-3.76-32.92-17.16-44.13-12.71-8.06-27.56-14.14-43.42-14.18l-96.96-.22-.21,197.59,99.31-.1c34.28-.03,66.03-12.26,68.46-48.51Z"/>
  <path d="M1358.83,1576.98c-237.21,153.63-530.28,159.33-774.98,19.3-236.63-135.42-385.81-393.62-371.86-668.2,3.89-76.6,17.84-150.86,45.34-222.76,71.31-186.41,210.42-335.32,393.05-417.13,155.89-69.83,331.72-83.44,496.94-39.83,104.2,27.51,200.27,78.71,282.85,147.11,163.14,135.12,259.29,335.12,265.85,546.77,4.21,135.91-31.55,268.48-99.54,386.11-58.34,100.95-139.82,185.26-237.66,248.63ZM608.56,1083.29c-15.51-38.01-22.17-77.58-23.59-119.29l-30.61.06,4.32,53.68,4.92,25.36c7.79,40.12,24.71,77.25,44.46,112.3,14.81-8.96,28.15-18.61,45.79-24.23-11.53,15.39-29.15,18.62-43.32,29.67l41.31,59.98c-21.55-14.8-32.31-38.26-45.43-57.98l-127.05,73.25c16.65,28.28,34.74,54.12,55.87,78.48l1.14,4.29c.24.9-2.52,2.33-3.2,1.71l-3.07-2.8c-20.64-25.47-39.57-50.86-55.61-79.36l-154.7,89.96c129.63,218.68,366.42,354.76,619.79,361.59l.27-111.27c-2.26-.6-5.57-3.21-9.21-5.44l-34.69-21.29-83.58-48.09c-5.99-3.45-10.17-9.04-10.17-16.2l-.06-129.18c0-8.24,4.14-12.19,10.54-15.87l123.81-71.18,121.73,69.94c7.08,4.07,11,7.89,11.01,16.77l.23,129.82c.01,8.45-3.33,13.22-10.4,17.34l-114.74,66.73,2.48,10.22.15,107.68c198.11,4.38,389.47-77.26,530.26-216.57,44.23-43.77,81.09-93.32,112.68-146.37l-152.69-86.57c-19.42,34.23-42.79,63.54-67.62,93.08l-5.16,2.08c-.95.38-1.77-3.96-1.25-4.08,26.4-29.3,49.16-59.38,69.49-93.79l-127.99-72.85c-23.09,34.17-44.63,72.12-81.09,97.43,25.64-34.08,55.73-62.09,75.33-100.7l-101.54-56.73-102.04-58.02c-.81-.71-3.97-3.13-3.28-3.89l2.87-3.18c.46-.51,2.78,1.04,3.6,1.5l117.24,66.64,86.15,48.44c32.72-59.27,49.52-124.63,49.58-192.37l-241.29-.18c-2,0-6.24-1.59-5.36-2.76s3.55-2.96,5.25-3.72l241.76.05-7.01-70.7-4.54-21.18c-9.8-35.03-21.28-68.59-39.84-100.32l-66.77,38.4c-1.15.66-4.65,2.24-4.8,1.24l-.78-5.26,69.15-39.48c-17.96-37.4-48.31-63.58-73.48-96.64,35.38,23.25,56.12,58.97,79.49,93.04l128.17-72.74c-18.45-35.46-44.57-63.47-68.36-97.42,32.79,23.92,50.63,61.2,73.57,94.06l152.69-87.37c-133.25-227.16-378.84-367.2-642.7-363.07l-.05,102.79c-3.8.68-6.69-2.92-6.68-6.62l.07-96.15c-172.76,3.5-336.76,66.42-467.65,178.75-60.19,51.66-110.37,113.16-152.16,181.42l155.43,90.56c23.16-31.44,41.33-67.4,73.48-90.57-23.36,33.11-49.36,59.79-67.95,93.83l126.15,73.13c29-46.54,64.71-86.31,109.96-115.88,34.92-22.82,72.93-43.64,114.19-52.37-35.68,18-68.84,29.39-101.39,49.85-48.51,30.48-87.23,72.39-118.58,120.9l27.19,15.82c32.86-50.31,64.54-80.55,113.02-113.77l25.94-14c19.73-10.65,39.98-20.03,62.65-23.44-28.19,10.47-55.28,20.93-80.92,37.11-19.06,12.04-36.6,23.41-53.61,38.66-24.95,22.37-46.3,48.62-63.96,77.36l160.11,93.65c3.69,2.8-1.05,8.16-4.09,4.22l-159.34-92.87c-32.37,53.08-48.93,113.06-49.67,175.42l187.15-.12,3.03,3.36c.64.71-1.99,2.74-3.03,3.26l-186.81-.28c-.42,40.59,7.6,80.8,21.39,118.74l.74,1.22,2.99,8.99,1.1,1.03,9.39,21.39-3.08-.06-8.11-20.03-.79-1.16-3.04-8.95-1.15-1.84ZM413.29,831.85l16.69-55.52c11.98-31.58,26.06-61.75,43.05-90.15l-155.7-90.64c-66.24,111.02-98.46,234.92-99.39,362.01l179.77.04c1.28-44.34,7.14-84.43,15.58-125.73ZM1508.08,908.12l4.28,49.29,177.06-.11c-2.19-130.2-33.25-246.03-96.88-359.02l-153.15,87.96c23.77,40.15,41.75,81.44,51.67,126.54l15.62,71.03,1.4,24.31ZM402.95,957.59h146.17c1.21-69.28,19.83-135.51,54.85-195.4l-126.36-73.4c-24.11,42.21-43.28,85.98-56.81,131.8l-7.51,32.69c-3.02,18.68-7.99,37.58-8.66,56.7l-1.68,47.61ZM1505.31,918.89l-1.82-18.78-6.15-41.63c-9.95-58.82-34.02-118.45-62.34-169.81l-129.03,73.59c32.69,58.44,50.88,128.17,51.11,195.07l149.68.06-1.46-38.49ZM585.03,957.31c2.02-64.03,19.2-122.12,50.29-176.65l-26.8-15.85c-34,60.25-52.56,124.74-53.6,192.73l30.11-.23ZM1440.37,1234.83l152.13,86.7c62.64-108.54,97.19-230.67,96.87-357.88l-177.03.41-3.37,46.91c-1.74,31.03-6.42,60.43-14.96,90.77-11.22,46.8-29.35,90.4-53.64,133.09ZM414.6,1091.17c-9.12-30.14-11-61.54-14.77-93,.48-11.74-.38-22.44-2.44-34.23l-179.39.06c-.34,127.33,34.42,250.67,98.58,359.16l154.72-90c-15.99-28.58-31.04-57.2-40.35-87.98l-16.34-54.01ZM603.21,1157.58l-11.83-23.18-20.05-46.15-10.18-35.73-7.76-40.41c-3.07-16-4.19-31.35-4.03-48.04l-146.48-.07,1.96,47.4c1.09,26.29,7.55,51.05,13.62,76.25l7.66,31.79,8.31,22.16c11.48,30.62,24.84,58.52,40.85,89.41l127.93-73.44ZM1503.65,1026.96l1.96-20.88,1.83-42.14-150.1.03c.57,67.3-16.2,133.49-50.14,195.15l128.99,73.42c23.07-43.29,41.67-86.96,53.68-134.24l13.78-71.33Z"/>
  <path d="M839.51,1991.38c-44.87,47.35-139.6,42.75-174.46-20.46-19.9-36.08-16.43-82.04,9.74-114.07,39.3-48.1,124.43-50.77,166.68-4.24,35.63,39.24,34.4,100.4-1.96,138.77ZM756.95,1982.57c36.27,1.68,62.6-25.74,62.73-60.7.11-28.24-16.86-54.32-44.55-60.76-20.88-4.85-41.57.36-56.49,14.17-14.19,13.13-20.39,32.03-18.38,52.54,2.96,30.16,24.75,53.27,56.69,54.76Z"/>
  <path d="M375.69,2010.78c-31.47,15.8-67.63,16.02-99.22,2.98-39.45-16.28-62.62-53.35-61.37-95.76,1.1-37.31,20.71-70.18,54.41-86.48,35.12-16.98,76.61-16.67,110.57,2.04,30.66,16.89,47.74,45.88,49.8,80.37,2.43,40.72-16.36,77.87-54.19,96.85ZM342.49,1979.43c26.47-8.33,40.46-33,40.36-59.35-.12-31.45-21.7-57.1-52.53-60.38-36.86-3.92-66.57,21.93-67.72,58.67-.63,20.23,7.59,39.09,22.09,50.73,16.18,13,37.05,16.85,57.8,10.32Z"/>
  <polygon points="652.45 2019.37 596.95 2019.89 536.26 1942.42 509.58 1970.59 509.27 2019.67 462.2 2019.6 462.67 1822.17 509.16 1822.05 509.76 1913.56 593.66 1822.38 648.37 1822.27 567.78 1909.9 652.45 2019.37"/>
  <path d="M1486.49,1971.08c-2.43,36.25-34.18,48.48-68.46,48.51l-99.31.1.21-197.59,96.96.22c15.86.04,30.71,6.11,43.42,14.18,13.4,11.21,18.98,26.45,17.16,44.13-1.51,14.63-10.79,27.98-25.47,36.42,24.12,9.02,37.18,28.88,35.49,54.03ZM1445.18,1898.32c9.11-11.37,10.35-24.79,4.63-36.9-5.02-10.62-16.58-15.49-29.53-18.73l-77.05-.26-.34,66.86,68.61.11c12.03-.89,23.26-4.01,33.68-11.09ZM1454.59,1987.54c10.04-10.8,9.91-27.76,3.16-39.77-5.94-10.57-19.52-18.4-33.76-18.49l-81.04-.52.23,70.88,81.11-.39c10.35-1.99,22.48-3.28,30.3-11.7Z"/>
  <polygon points="1075.26 2018.78 1054.74 2019.12 930.95 1866.36 930.53 2019.54 906.73 2019.51 906.69 1822.14 926.77 1822.95 1051.09 1976.61 1051.46 1822.2 1075.08 1822.23 1075.26 2018.78"/>
  <path d="M1708.01,1973.04c-20.04,33.93-56.2,49.75-93.93,48.88-43.65-1-81.5-28.27-94.66-67.26-14.22-42.12-1.37-88.52,34.58-114.33,39.55-28.4,93.23-27.77,131.28,2.51,38.77,30.85,48.35,86.82,22.73,130.2ZM1616.98,2000.43c41.72.36,74.19-27.65,80.07-67.65,3.6-24.46-3.53-48.92-20.07-66.7-16.12-17.33-40.21-26.25-64.86-24.54-42.76,2.96-73.86,35.9-74.2,78.38-.35,44.57,33.11,80.11,79.06,80.51Z"/>
  <polygon points="1258.57 1928.82 1157.12 1928.93 1157.21 1998.88 1275.29 1998.81 1275.54 2019.6 1132.64 2019.61 1132.69 1822.1 1270.64 1822.16 1271.35 1843.01 1157.16 1843.28 1157.15 1908.61 1258.43 1908.6 1258.57 1928.82"/>
  <path d="M885.09,192.84c8.49.93,12.95.98,20.9,3.5-13.24,3.06-23.39,2.53-35.93,2.17l-4.34-9.7-15.61.23c-1.87,6.07-3.12,9.67-9.74,9.77l12.83-35.36c.54-1.5,2.62-3.79,3.8-4.38s4.46,1.93,5.07,3.52l13.03,34.13,21.65-31.48c-8.45-.6-13.04-.88-20.72-3.25,11.4-3.67,18.96-3.17,29.96-1.03l-20.9,31.87ZM863.99,183.98l-6.29-16.06-6.1,16.15,12.39-.09Z"/>
  <path d="M962.82,199.16c-5.51-9.23-3.32-17.92-3.89-27.77l-14.11,23.92-13.61-23.05-.57,26.65-4.88-.19-.81-35.45,5.36-4.58,14.56,26.48,12.32-22.37,1.92-3.16c.65-1.07,5.71,1.65,5.64,3.02l-1.93,36.5Z"/>
  <path d="M1355.08,1660.37c-6.33.25-11.45-2.69-13.78-6.88-2.04-3.66,2.01-10.56,3.03-14.3-.13-4.5-4.07-11.76.23-15.62,5.14-4.61,12.25-5.23,17.81-.92,4.72,3.66,3.4,11.6.54,16.72,2.39,3.31,5.17,9.22,4.26,12.67-1.06,4.04-6.59,8.12-12.08,8.34ZM1352.42,1624.9c-2.34.26-5.1,5.82-4.32,8.06s6.26,4.5,8.52,3.58,3.63-5.86,2.9-8.34c-.56-1.9-4.61-3.58-7.09-3.3ZM1349.68,1643.04c-2.47,1.13-2.9,9.43-.67,10.57s6.44,1.71,8.81.9,3.58-7.29,2.45-9.52-6.95-3.61-10.58-1.94Z"/>
  <path d="M1397.75,1650.61c-1.64,6.39-7.88,10.14-12.77,10.1s-10.81-3.72-12.52-9.26c-2.32-7.5-2.42-15.39-.01-22.96,1.58-4.95,8.06-9.03,12.54-9.05,11.75-.04,17.02,14.53,12.76,31.17ZM1386.75,1625.4c-1.49-.75-6.5,1.05-7.35,2.7-4.62,8.92-3.18,24.6,5.53,27.41,6.81,2.2,13.03-24.45,1.83-30.11Z"/>
  <path d="M149.27,981.22c-4.41-.34-10.38-3.89-11.13-6.92-.94-3.81,1.5-10.61,3.04-14.41-.6-3.31-2.41-10.93-1.28-14.12s7.58-5.43,11.95-5.37c3.88.05,10.21,3.6,10.66,6.74s-1.89,9.56-3.29,12.21c3.18,3.78,5.77,9.58,4.12,14.78-1.39,4.36-7.38,7.61-14.07,7.09ZM146.75,946.57c-2.11,1.74-2.8,8.49-.49,9l8.68,1.91,1.59-10.93c-3.37-.84-8.22-1.26-9.78.02ZM148.3,962.6c-2.73.48-5.24,7.43-4.11,10.03s6.94,3.92,9.9,2.87c2.55-.91,4.25-6.79,3.16-9.38-.91-2.15-5.65-4.11-8.95-3.52Z"/>
  <path d="M991.81,1750.53c-1.65,6.66-7.73,10.41-12.8,10.28s-10.67-3.69-12.54-9.51c-4.68-14.56.08-31.57,12.54-31.72,3.14-.04,9.69,3.04,10.97,5.99,3.44,7.91,4.02,16.14,1.83,24.96ZM984.83,1729.45c-.69-1.91-5.81-4.84-7.66-4.06-8.6,3.66-7.86,29.08,1.78,30.2,6.38.74,10.48-13.39,5.88-26.14Z"/>
  <path d="M302.44,1341.31c6.14,14.41,2.52,30.95-8.32,33.93-4.58,1.26-12.15-1.72-14.46-6.79-3.9-8.56-3.77-18.17-.02-27.16,1.36-3.27,8.15-7.03,11.5-7.13s9.8,3.64,11.3,7.16ZM296.74,1343.54c-.78-1.87-5.6-4.46-7.32-3.64-9.46,4.51-7.4,30.45,1.62,30.2,7.26-.2,10.64-14.74,5.7-26.56Z"/>
  <path d="M594.89,1629.05c4.59,16.59-1.17,31.38-11.92,31.61-4.58.1-11.18-3.46-13.03-8.52-2.8-7.65-2.62-16.32.09-24.11,1.81-5.19,8.09-8.73,12.92-8.54,4.58.18,10.48,4.33,11.93,9.57ZM588.52,1629.89c-.64-2.2-5.42-5.49-7.44-4.92-6.53,1.86-8.32,13.75-5.38,25,.55,2.11,5.07,5.41,7.15,5.13,6.38-.86,9.16-13.2,5.67-25.21Z"/>
  <path d="M1070.57,160.19l.07,33.25c0,1.36-.88,4.47-1.25,5.37s-4.35.44-4.39-.53l-.18-4.24-.56-12.84-17.23.15-1.09,17.43-4.82.14-.72-38.67,6.18-.65.06,16.42,17.62.02.31-15.26c-.69.07,1.87-.18,6-.57Z"/>
  <path d="M300.87,582.39c-1.94,3.08-9.98,4.91-13.2,3.9-10.58-3.3-13.06-19.51-7.85-32.61,1.27-3.2,6.62-7.14,9.62-7.69,3.48-.64,10.97,2.34,12.58,5.59,4.9,9.91,5.32,20.55-1.15,30.81ZM296.77,553.8c-.67-1.45-6.03-3.1-7.41-2.19-8.07,5.36-7.77,28.12,1.92,30.13,6.36,1.32,11.14-15.63,5.49-27.94Z"/>
  <path d="M271.37,581.12c-1.76,3.72-10.39,6.3-13.92,5.36s-9.06-5.8-9.82-9.78c-2.99-15.76.38-29.48,11.56-30.62,4.66-.48,11.15,2.77,13.07,7.52,3.56,8.81,3.76,17.73-.88,27.52ZM262.59,551.75c-1.47-.67-6.65.75-7.34,2.21-4.48,9.57-3.26,26.14,5.72,27.94,7.87,1.57,11.36-25.71,1.62-30.15Z"/>
  <path d="M193.75,973.08c-1.39,4.6-8.75,8.56-12.42,8.27-5.1-.39-11.32-4.68-12.36-10.22-2.9-15.56-.31-29.15,10.54-30.65,4.83-.67,12.7,2.43,14.31,7.39,2.67,8.23,2.75,15.88-.07,25.21ZM188.83,970.13l-.17-18.77c-.02-2.42-5.21-6.19-7.5-5.78-7.48,1.32-8.34,12.8-6.12,25.43.41,2.3,5.48,5.54,7.77,5.28,1.91-.21,6.05-4.2,6.03-6.16Z"/>
  <path d="M1692.03,553.7c5.5,15.2.91,31.38-9.28,33.01-4.5.72-12.01-2.63-13.95-7.3-3.74-8.97-3.75-17.65.17-26.89,1.35-3.19,8.55-6.66,11.98-6.6s9.72,4.05,11.08,7.79ZM1680.91,551.26c-1.62-.33-5.97,2.04-6.61,3.74-4.31,11.47-1.63,26.16,6.55,27.14,7.49.9,11.66-28.5.06-30.89Z"/>
  <path d="M1689.57,1370.8c-4.76,7.03-17.35,5.8-20.71-1.7-6.31-14.14-2.26-32.69,8.73-34.64,3.7-.65,10.68,1.7,12.54,5.08,5.41,9.81,6.1,21.4-.56,31.26ZM1680.83,1339.82c-8.76-1.68-11.43,18.8-5.6,28.27.81,1.31,5.76,2.47,7.1,1.7,8.19-4.67,7.83-28.18-1.49-29.97Z"/>
  <path d="M1790.71,979.71c-5.84,3.87-14.46.51-17.27-5.45-3.07-6.5-3.32-14.88-1.83-22.5,1.24-6.33,7.85-11.47,13.3-11.28,7,.24,12.75,5.94,13.56,13.38,1,9.21.88,20.13-7.77,25.85ZM1791.42,950.92c-.47-2.07-4.63-5.19-6.57-5.32s-6.14,2.95-6.65,4.82c-3.44,12.58-1.23,24.98,6.71,25.74,6.27.6,9.65-11.43,6.51-25.24Z"/>
  <path d="M596.35,297.69c-1.84,4.99-8.92,8.25-13.21,7.9-10.97-.92-15.71-16.54-11.07-31.53,1.58-5.1,8.3-8.97,12.88-8.71,11.69.66,17.29,16.4,11.4,32.34ZM590.16,274.06c-.71-1.71-5.07-4.15-6.86-3.84-6.41,1.14-8.31,13.6-5.37,25.7.5,2.06,4.88,5.19,6.88,4.89,7.65-1.13,9.82-16.04,5.35-26.76Z"/>
  <path d="M1395.78,300.84c-1.83,3.12-9.26,5.33-12.23,4.8-3.34-.59-9.14-4.94-10.19-8.65-4.25-15.1-.51-29.81,9.92-31.49,4.55-.73,11.96,2.43,14,7.07,4.03,9.18,3.71,19.41-1.49,28.28ZM1391.78,274.76c-.67-1.85-4.95-4.58-6.78-4.61-6.24-.09-9.34,13.07-5.51,26.09.59,1.99,5.37,5,7.4,4.63,6.23-1.12,8.77-15.49,4.89-26.11Z"/>
  <path d="M1365.77,299.23c-1.47,3.08-7.88,6.51-10.86,6.51-3.35,0-9.7-3.77-11.2-7.29-6.67-15.57-1.58-31.93,9.36-32.98,4.27-.41,11.14,2.11,12.86,6.13,3.84,9.03,4.48,17.88-.15,27.63ZM1361.1,275.04c-.44-1.77-4.29-4.83-6.11-4.85s-5.88,2.85-6.41,4.6c-3.7,12.11-1.27,25.32,6.34,26.24,6.18.75,9.94-10.97,6.18-25.99Z"/>
  <path d="M996.59,160.27l5.92-.19-.16,26.19c-.05,8.02-8.56,13.19-15.24,13.04-8.11-.18-14.53-6.79-14.44-15.59l.25-24.83,5.99,3.88-.06,22.91c0,3.25,5.37,8.01,8.39,8.11,4.29.14,9.33-4.78,9.33-9.19l.02-24.33Z"/>
  <path d="M533.67,1660.15l-27.54-.84,18.97-22.07c1.73-2.01,1.6-9.42-.52-10.9-2.6-1.83-8.62.69-10.71,3.19-.82.98-3.73,2.23-4.89,2.61s-.61-4.53-.05-5.72c3.05-6.52,13.08-8.96,19.04-5.17,6.52,4.14,6.61,14.07,1.18,19.96l-11.27,12.25,14.1.34c.79.02,1.27,3.07,1.69,6.34Z"/>
  <path d="M902.92,1759.69l19.95-24.76c1.6-1.98.08-8.95-2.31-9.34-7.22-1.19-5.64,3.81-13.67,6.52-1.21.41-1.05-4.92-.33-6.23,2.68-4.85,11.47-7.69,17.41-4.88,5.42,2.56,8.68,11.32,4,16.94l-13.25,15.93c8.31.46,13.72-3.63,17.43,6l-29.23-.19Z"/>
  <path d="M558.96,1658.59c-.47.72-4.01.87-4.02-.29l-.09-7.57-20.11-1.85,19-28.03c.71-1.05,6.54-1.18,6.51.17l-.15,7.09c-.16,7.31.96,14.12,3.7,19.36l-4.84,11.12ZM555.12,1643.48l-.42-15.45-10.97,16.15,11.39-.71Z"/>
  <path d="M1338.44,1659.87l-29.58-.56,20.05-23.86c1.85-2.2.1-9.25-2.33-9.72s-7.75,1.09-9.29,3.03l-2.75,3.47c-.78.99-3.66-3.61-3.2-4.85,1.34-3.64,7.8-8.03,11.67-7.94,4.16.09,10.29,3.02,11.86,6.57,2.06,4.65.09,11.82-3.05,15.24l-11.29,12.29c8.24,1.45,12.13-4.31,17.91,6.34Z"/>
  <path d="M217.04,576.86c5.63-5.6,6.75,6.1,14.09,5.15,2.44-.32,6.12-4.8,6.02-7.25-.11-2.62-3.87-6.07-6.79-7.16-1.24-.46-3.38-1.88-2.68-2.32l3.86-2.4c1.37-.85,3.69-3.03,4.49-4.44,1-1.77-1.43-6.44-3.44-6.77s-6.7.95-7.89,2.61l-2.34,3.27c-.66.93-4.62-1.03-4.5-2.17.45-4.28,7.71-10.96,14.11-9.55,3.9.86,9.51,4.39,10.07,7.51s-1.89,9.18-3.09,11.87c2.13,3.42,5.04,9.36,4.07,12.56-1.3,4.29-6.43,7.88-10.8,8.99-7.56,1.93-15.2-4.97-15.19-9.92Z"/>
  <path d="M215.12,1373.83l19.77-22.57c1.45-2.06,1.05-9.19-.99-10.36-2.39-1.37-8.15.26-9.91,2.45l-3.04,3.78c-.62.77-3.51-3.01-3.28-4.07,1.24-5.56,11.44-11.37,18.08-7.65s8.97,13.16,3.21,19.86l-11.13,12.94c8.31.57,11.45-.54,16.3,5.34-10.08,1.54-15.7,1.63-29.01.29Z"/>
  <path d="M1643.24,1374.7l-6.33-2.52c-1.04-.41-.18-4.2.92-4.06l5.69.73c2.48.32,7.75.88,9.38-.7s2.57-6.23,2.27-8.52c-.35-2.61-5.95-5.18-8.67-5.14l-8.34.13,2.87-19.93,20.62.62c-2.39,4.57-5.54,5.79-9.08,5.8h-6.56c-1.59.02-1.58,5.15-1.61,7.65,4.64.3,11.42,1.28,14.66,4.96,3.42,3.89,3.09,11.52.11,16.31-2.5,4.03-10.9,6.68-15.92,4.68Z"/>
  <path d="M266.71,1375.45c-.64.53-2.34-5.2-3.13-10.23l-20.31-1.22,20.69-29.94c2.94.64,5.28.8,5.25,1.94l-.18,8.03c-.15,6.9.79,13.68,4.21,17.94l-6.54,13.47ZM264.32,1359.72l-.85-16.02-10.62,15.56,11.48.46Z"/>
  <path d="M133.04,980.5l-27.4-.22,18.85-22.1c1.91-2.23,2.24-9.56-.19-11.37s-8.42.17-10.25,2.47l-2.81,3.53c-.54.68-3.66-1.11-3.35-1.92l1.51-3.98c2.47-6.51,12.61-7.71,17.66-4.9,6.68,3.72,7.08,13.44,1.99,19.13l-11.65,13.03,14.84.89.79,5.44Z"/>
  <path d="M1644.48,586.36l-5.92-2.2c-1.14-.42.06-4.74,1.31-4.49l10.46,2.04c2.26.44,4.64-4.84,5.2-7.09.66-2.61-2.45-8.34-5.19-8.39l-11.91-.21,2.99-19.24,18.23-.36.14,4.47c.04,1.31-4.32.72-5.8.93l-7.84,1.12c-1.99.28-1.32,7-.82,6.95,5.82.87,12.34,2.51,14.43,5.51,2.73,3.92,2.11,12.07-.02,15.55-2.52,4.1-11.32,6.87-15.25,5.41Z"/>
  <path d="M528.17,305.74l-2.08-10.29-19.66-1.6c7.12-11.42,12.76-19.04,21.64-29.5,8.54,4.21-1.85,18.92,7.58,27.91l-7.47,13.49ZM526.81,290.61l-1.33-15.49-10.81,14.75,12.14.74Z"/>
  <path d="M1756.34,954.98c9.71,1.53,11.3,11.61,8.3,18.43-2.96,6.72-12.29,10.53-19.92,5.83l-3.51-2.16c-.75-.46,1.19-3.55,2.04-3.31l4.57,1.25c3.56.97,9.61-.08,11.44-2.82,2.12-3.16.45-11.76-2.86-11.77l-13.36-.04,3.02-18.28c6.89-1.99,13.43-3.08,20.06,2.34l-16.1,2.65-.58,5.98c-.14,1.42,4.81,1.58,6.9,1.91Z"/>
  <path d="M545.12,303.52l-3.39-2.36c-.67-.47.73-3.38,1.51-3.13l4.07,1.29c2.39.76,8.49,1.36,10.21-.31s2.53-6.49,2.34-9.3c-.16-2.39-4.69-5.06-7.14-4.95l-9.73.44,2.81-19.69c7.79,0,11.82.02,20.5,2.38l-15.98,3.86c-.3,1.08-1.94,6.85-.63,7.14l7.82,1.69c8.22,1.78,10.23,10.53,7.12,16.94s-11.59,11.5-19.51,5.99Z"/>
  <path d="M939.29,1758.87l15.39-32.22-16.33-.71c-.86-.04-2.71-2.15-3.19-2.87s2.47-3.1,3.46-3.06l24.96,1.09-17.45,37.46c-.49,1.06-5.94.9-6.84.31Z"/>
  <path d="M1314.96,304.89c1.03-3.54,3.24-4.51,8.2-4.63l.22-24.84-4.96,2.78c-1.07.6-5.07-1.55-4.43-2.6,2.11-3.44,8.96-8.5,14.94-10.78l.31,33.21,9.22,6.78-23.49.06Z"/>
  <path d="M1714.72,980.08c-.58-3.36,2.92-4.85,7.03-4.77l.2-25.45-4.32,3.19c-1.08.8-4.16-.47-5.39-1.75,3.55-4.8,9.05-9.29,15.59-11.58l.58,36.2,6.5-.03c1.1,0-.04,4.61-1.15,4.58l-19.03-.4Z"/>
  <path d="M1608.17,585.82l8.96-5.72.23-24.59-6.75,3.99c-1.16.69-2.75-4.23-1.7-4.97l14.02-9.86.71,36.33,5.45.9c.81.13.88,4.45.05,4.43l-20.97-.51Z"/>
  <path d="M1612.51,1375.11c-.82.07-3.47-4.33-2.65-4.44l7.28-.99.26-25.33-4.95,3.4c-1.18.81-3.91-1.85-4.69-3.27l15.2-11.19.75,34.34,7.7,5.93-18.91,1.55Z"/>
  <path d="M1023.8,196.96c-.03,1.03-5.7,1.05-5.71.02l-.13-31.03-11.94-2.24.26-3.81,29.72-.31c-1.1,5.92-4.14,6.09-11.37,5.19l-.82,32.18Z"/>
  <path d="M916.9,195.25c.02,2.33-6.1,3.79-6.12,1.74l-.3-36.47,6.07-.41.35,35.14Z"/>
  <path class="cls-1" d="M610.52,1082.69c-13.78-37.93-21.81-78.14-21.39-118.74l186.81.28c1.04-.52,3.67-2.55,3.03-3.26l-3.03-3.36-187.15.12c.74-62.36,17.3-122.34,49.67-175.42l159.34,92.87c3.04,3.93,7.78-1.42,4.09-4.22l-160.11-93.65c17.66-28.74,39.02-54.99,63.96-77.36,17.01-15.25,34.54-26.62,53.61-38.66,25.64-16.18,52.73-26.64,80.92-37.11-22.67,3.41-42.93,12.8-62.65,23.44l-25.94,14c-48.48,33.22-80.16,63.46-113.02,113.77l-27.19-15.82c31.34-48.51,70.07-90.42,118.58-120.9,32.55-20.46,65.71-31.85,101.39-49.85-41.26,8.73-79.27,29.56-114.19,52.37-45.26,29.57-80.96,69.34-109.96,115.88l-126.15-73.13c18.59-34.03,44.6-60.71,67.95-93.83-32.15,23.17-50.32,59.13-73.48,90.57l-155.43-90.56c41.79-68.26,91.97-129.76,152.16-181.42,130.89-112.34,294.89-175.26,467.65-178.75l-.07,96.15c0,3.69,2.88,7.3,6.68,6.62l.05-102.79c263.86-4.14,509.45,135.9,642.7,363.07l-152.69,87.37c-22.94-32.86-40.77-70.14-73.57-94.06,23.79,33.95,49.91,61.96,68.36,97.42l-128.17,72.74c-23.37-34.07-44.11-69.8-79.49-93.04,25.17,33.06,55.51,59.23,73.48,96.64l-69.15,39.48.78,5.26c.15,1,3.65-.57,4.8-1.24l66.77-38.4c18.56,31.73,30.05,65.29,39.84,100.32l4.54,21.18,7.01,70.7-241.76-.05c-1.7.76-4.38,2.56-5.25,3.72s3.36,2.76,5.36,2.76l241.29.18c-.06,67.74-16.86,133.1-49.58,192.37l-86.15-48.44-117.24-66.64c-.81-.46-3.13-2.01-3.6-1.5l-2.87,3.18c-.69.76,2.47,3.19,3.28,3.89l102.04,58.02,101.54,56.73c-19.6,38.61-49.69,66.62-75.33,100.7,36.46-25.31,58-63.26,81.09-97.43l127.99,72.85c-20.33,34.41-43.09,64.49-69.49,93.79-.52.12.29,4.47,1.25,4.08l5.16-2.08c24.84-29.54,48.21-58.85,67.62-93.08l152.69,86.57c-31.6,53.05-68.45,102.6-112.68,146.37-140.78,139.31-332.15,220.95-530.26,216.57l-.15-107.68-2.48-10.22,114.74-66.73c7.07-4.11,10.41-8.89,10.4-17.34l-.23-129.82c-.02-8.88-3.94-12.7-11.01-16.77l-121.73-69.94-123.81,71.18c-6.41,3.68-10.55,7.64-10.54,15.87l.06,129.18c0,7.16,4.18,12.75,10.17,16.2l83.58,48.09,34.69,21.29c3.63,2.23,6.95,4.84,9.21,5.44l-.27,111.27c-253.36-6.83-490.15-142.91-619.79-361.59l154.7-89.96c16.04,28.5,34.97,53.89,55.61,79.36l3.07,2.8c.69.63,3.44-.81,3.2-1.71l-1.14-4.29c-21.14-24.36-39.23-50.21-55.87-78.48l127.05-73.25c13.12,19.73,23.89,43.19,45.43,57.98l-41.31-59.98c14.17-11.04,31.79-14.27,43.32-29.67-17.64,5.63-30.98,15.27-45.79,24.23-19.74-35.05-36.67-72.18-44.46-112.3l-4.92-25.36-4.32-53.68,30.61-.06c1.42,41.71,8.08,81.29,23.59,119.29l1.96-.6ZM774.31,571.7c3.95-3.05,6.59-6.02,8.15-9.57l-.52-146.49-136.39-79.11-136.2,78.13-.02,143.44c.42,6.64,4.32,11.23,10.14,14.78l127.38,73.27,127.46-74.44ZM1367.71,567.12l1.15-119.05-3.33-32.96-135.85-78.44-137.57,78.62.28,141.68c.44,6.25,3.45,10.73,8.97,13.99l128.91,74.08,137.44-77.92ZM937.07,645.08l126.06-75.76c2.83-2.38,4.98-5.56,6.23-9.16l.02-144.97-133.95-76.99-132.97,76.68-.05,143.24c.56,5.84,3.75,9.76,8.87,12.95l125.78,74.02ZM1218.88,806.94l-.33-149.09-135.1-75.57-132.81,75.62-.16,144.79c32.43,6.54,61.04,17.67,88.13,34.69,18.15,12.98,32.95,27.68,48.01,46.02l132.27-76.45ZM1038.87,958.59l19.28.4c-1.95,27.86-13.03,49.29-29.5,69.82-1.89,2.36-.15,10.33,2.64,11.05,2.39.62,7.93-.59,9.95-2.84,43.78-48.91,42.13-124.28-.93-173.2-1.44-1.64-7.04-.29-8.76.88s-4.07,7-2.49,8.95c15.33,18.94,27.77,44.27,28.81,69.59l-18.18.38c-1.23-28.25-23.85-69.46-34.42-56.77-1.53,1.83-2.1,8.46-.25,10.55,10.58,11.92,18.9,29.13,19.14,45.94l-19.92.12c-2.55-21.43-15.6-38.1-34.82-47s-40.63-9.59-61.33,1.63c-15.39,8.35-28.63,24.61-31.8,45.22l-19.69-.45c.4-16.66,9.07-32.25,18.45-45.56,1.52-2.16,1.45-10.17-1.1-10.39l-9.62-.81c-13.05,17.44-21.55,35.06-23.04,57.18l-19.14-.09c1.15-26.75,12.77-49.18,29.55-69.87.7-2.74.19-8.73-1.93-9.87s-6.55-.62-9.67.49c-44.05,49.67-45.96,123.85-1.78,173.64,2.63,2.56,9.4,3.6,11.61,1.48,1.83-1.76,2.04-7.07,1.47-10.28-18.33-19.76-27.92-43.83-29.74-70.54l19.58.71c.89,25.96,22.18,65.79,33.92,57.09,2.44-1.81,3.68-8.51,1.77-10.78-11.44-13.61-18.82-28.51-20.34-46.25l19.48-.85c2.77,22.98,16.1,39.96,36.98,49.33l-28.74,66.57c-1.14,2.64.95,8.4,2.99,9.55s7.83,2.45,10,1.49l70.38-31.38,12.06,24.98c2.31,4.78,16.43.8,16.69-4.99l-30.12-65.96c21.73-9.41,35.52-26.63,37.44-49.38l20.6-.05c-1.85,18.81-9.6,33.82-22.08,48.74-2.24,2.68,1.6,10.01,5.16,10.79,12.04,2.62,31.08-35.56,31.45-59.29ZM801.64,1328.59l119.85-69.06c2.14-3.91,3.89-10.8,4.55-15.47l-.11-117.71c-1.8-2.56-5.89-6.56-8.62-7.54-46.95-16.87-96.57-39.8-123.72-84.07l-54.64,30.05-77.15,45.2-1.15,27.24.32,106.87c.01,4.61,2.25,10.6,4.58,14.32l120.06,70.14c5.2,2.83,10.19,3.39,16.03.03ZM611.26,1083.91l-1.55,1.22,3.04,8.95,1.5-1.17-2.99-8.99ZM615.34,1093.94l-1.8,1.3,8.11,20.03,3.08.06-9.39-21.39ZM635.99,1136.45l-7.01-13.14c-1.52,6.1.55,10.26,7.01,13.14ZM947.31,1265.87l-.04-142.02c-2.73-.13-5.29-.07-5.62.8l-1.6,4.2-.04,129.09c-.24,4.69,2.4,10.23,7.3,7.93ZM656.89,1571.6l117.26-67.3c4.46-3,8.34-8.63,8.33-14.25l-.39-143.43-137.16-79.57-128.84,74.74c-3.09,2.87-5.35,6.27-6.58,10.12l.13,136.18c0,5.28,3.23,11.91,7.82,14.56l122.97,70.97c5.45,3.15,10.49,1.4,16.47-2.03ZM1359.62,1502.8c4.89-2.78,7.21-9.75,7.2-14.69l-.05-100.12c0-14.66,1.49-27.83-2.2-42.53l-117.38-68.61c-6.87-4.01-12.85-7.32-20.85-9.01l-128.07,74.31c-3.28,1.9-6.16,8.09-6.16,11.87l.2,135.39c.01,8.55,8.75,13.37,15.23,17.16l100.89,58.91,21.59,10.97,129.59-73.64Z"/>
  <path class="cls-1" d="M413.29,831.85c-8.44,41.3-14.3,81.39-15.58,125.73l-179.77-.04c.92-127.1,33.15-250.99,99.39-362.01l155.7,90.64c-16.99,28.4-31.07,58.57-43.05,90.15l-16.69,55.52Z"/>
  <path class="cls-1" d="M414.6,1091.17l16.34,54.01c9.31,30.78,24.36,59.4,40.35,87.98l-154.72,90c-64.15-108.5-98.92-231.83-98.58-359.16l179.39-.06c2.06,11.79,2.92,22.49,2.44,34.23,3.77,31.46,5.65,62.86,14.77,93Z"/>
  <path class="cls-1" d="M1508.08,908.12l-1.4-24.31-15.62-71.03c-9.92-45.1-27.9-86.39-51.67-126.54l153.15-87.96c63.63,112.99,94.69,228.83,96.88,359.02l-177.06.11-4.28-49.29Z"/>
  <path class="cls-1" d="M1440.37,1234.83c24.29-42.69,42.43-86.29,53.64-133.09,8.54-30.33,13.22-59.74,14.96-90.77l3.37-46.91,177.03-.41c.32,127.21-34.23,249.33-96.87,357.88l-152.13-86.7Z"/>
  <path class="cls-1" d="M1505.31,918.89l1.46,38.49-149.68-.06c-.23-66.9-18.42-136.63-51.11-195.07l129.03-73.59c28.31,51.37,52.38,110.99,62.34,169.81l6.15,41.63,1.82,18.78Z"/>
  <path class="cls-1" d="M1503.65,1026.96l-13.78,71.33c-12.01,47.28-30.6,90.95-53.68,134.24l-128.99-73.42c33.94-61.66,50.71-127.85,50.14-195.15l150.1-.03-1.83,42.14-1.96,20.88Z"/>
  <path class="cls-1" d="M402.95,957.59l1.68-47.61c.67-19.12,5.64-38.02,8.66-56.7l7.51-32.69c13.53-45.81,32.71-89.59,56.81-131.8l126.36,73.4c-35.02,59.89-53.65,126.11-54.85,195.39h-146.17Z"/>
  <path class="cls-1" d="M603.21,1157.58l-127.93,73.44c-16.01-30.9-29.37-58.79-40.85-89.41l-8.31-22.16-7.66-31.79c-6.07-25.19-12.54-49.95-13.62-76.25l-1.96-47.4,146.48.07c-.16,16.69.96,32.04,4.03,48.04l7.76,40.41,10.18,35.73,20.05,46.15,11.83,23.18Z"/>
  <path class="cls-1" d="M585.03,957.31l-30.11.23c1.05-67.99,19.6-132.48,53.6-192.73l26.8,15.85c-31.09,54.52-48.27,112.62-50.29,176.65Z"/>
  <path class="cls-1" d="M756.95,1982.57c-31.94-1.48-53.73-24.6-56.69-54.76-2.01-20.51,4.19-39.4,18.38-52.54,14.92-13.81,35.61-19.02,56.49-14.17,27.69,6.44,44.66,32.52,44.55,60.76-.13,34.96-26.46,62.39-62.73,60.7Z"/>
  <path class="cls-1" d="M342.49,1979.43c-20.75,6.53-41.62,2.68-57.8-10.32-14.49-11.65-22.72-30.51-22.09-50.73,1.15-36.74,30.86-62.59,67.72-58.67,30.82,3.28,52.41,28.93,52.53,60.38.1,26.36-13.89,51.02-40.36,59.35Z"/>
  <path class="cls-1" d="M1454.59,1987.54c-7.82,8.42-19.95,9.7-30.3,11.7l-81.11.39-.23-70.88,81.04.52c14.25.09,27.83,7.93,33.76,18.49,6.75,12.01,6.87,28.97-3.16,39.77Z"/>
  <path class="cls-1" d="M1445.18,1898.32c-10.42,7.08-21.65,10.19-33.68,11.09l-68.61-.11.34-66.86,77.05.26c12.96,3.23,24.51,8.11,29.53,18.73,5.72,12.1,4.48,25.53-4.63,36.9Z"/>
  <path class="cls-1" d="M1616.98,2000.43c-45.94-.4-79.4-35.93-79.06-80.51.33-42.49,31.44-75.43,74.2-78.38,24.65-1.7,48.74,7.22,64.86,24.54,16.54,17.78,23.67,42.24,20.07,66.7-5.88,40.01-38.35,68.01-80.07,67.65Z"/>
  <polygon class="cls-1" points="863.99 183.98 851.6 184.07 857.7 167.92 863.99 183.98"/>
  <path class="cls-1" d="M1349.68,1643.04c3.64-1.66,9.45-.29,10.58,1.94s-.09,8.71-2.45,9.52-6.58.24-8.81-.9-1.79-9.44.67-10.57Z"/>
  <path class="cls-1" d="M1352.42,1624.9c2.49-.28,6.53,1.4,7.09,3.3.74,2.48-.71,7.45-2.9,8.34s-7.74-1.34-8.52-3.58,1.98-7.8,4.32-8.06Z"/>
  <path class="cls-1" d="M1386.75,1625.4c11.2,5.66,4.98,32.3-1.83,30.11-8.71-2.81-10.14-18.49-5.53-27.41.85-1.65,5.86-3.45,7.35-2.7Z"/>
  <path class="cls-1" d="M148.3,962.6c3.29-.58,8.04,1.37,8.95,3.52,1.09,2.59-.61,8.48-3.16,9.38-2.96,1.05-8.82-.36-9.9-2.87s1.39-9.55,4.11-10.03Z"/>
  <path class="cls-1" d="M146.75,946.57c1.56-1.28,6.41-.86,9.78-.02l-1.59,10.93-8.68-1.91c-2.31-.51-1.62-7.26.49-9Z"/>
  <path class="cls-1" d="M984.83,1729.45c4.61,12.76.5,26.89-5.88,26.14-9.64-1.12-10.38-26.54-1.78-30.2,1.85-.79,6.97,2.15,7.66,4.06Z"/>
  <path class="cls-1" d="M296.74,1343.54c4.94,11.82,1.56,26.36-5.7,26.56-9.02.25-11.08-25.69-1.62-30.2,1.72-.82,6.53,1.77,7.32,3.64Z"/>
  <path class="cls-1" d="M588.52,1629.89c3.5,12.01.71,24.35-5.67,25.21-2.08.28-6.6-3.02-7.15-5.13-2.95-11.25-1.15-23.14,5.38-25,2.02-.58,6.8,2.72,7.44,4.92Z"/>
  <path class="cls-1" d="M296.77,553.8c5.65,12.31.87,29.26-5.49,27.94-9.69-2.01-10-24.77-1.92-30.13,1.38-.92,6.75.74,7.41,2.19Z"/>
  <path class="cls-1" d="M262.59,551.75c9.74,4.44,6.25,31.72-1.62,30.15-8.98-1.79-10.19-18.37-5.72-27.94.68-1.46,5.87-2.88,7.34-2.21Z"/>
  <path class="cls-1" d="M188.83,970.13c.02,1.96-4.12,5.95-6.03,6.16-2.29.26-7.36-2.98-7.77-5.28-2.22-12.63-1.36-24.11,6.12-25.43,2.29-.4,7.48,3.37,7.5,5.78l.17,18.77Z"/>
  <path class="cls-1" d="M1680.91,551.26c11.6,2.39,7.43,31.79-.06,30.89-8.18-.99-10.86-15.67-6.55-27.14.64-1.7,4.99-4.08,6.61-3.74Z"/>
  <path class="cls-1" d="M1680.83,1339.82c9.32,1.79,9.68,25.29,1.49,29.97-1.34.77-6.29-.39-7.1-1.7-5.83-9.47-3.15-29.95,5.6-28.27Z"/>
  <path class="cls-1" d="M1791.42,950.92c3.14,13.81-.24,25.84-6.51,25.24-7.94-.75-10.14-13.16-6.71-25.74.51-1.87,4.71-4.95,6.65-4.82s6.1,3.25,6.57,5.32Z"/>
  <path class="cls-1" d="M590.16,274.06c4.47,10.72,2.29,25.63-5.35,26.76-2,.3-6.38-2.83-6.88-4.89-2.93-12.1-1.03-24.57,5.37-25.7,1.79-.32,6.15,2.13,6.86,3.84Z"/>
  <path class="cls-1" d="M1391.78,274.76c3.88,10.63,1.34,24.99-4.89,26.11-2.03.36-6.81-2.64-7.4-4.63-3.83-13.01-.73-26.18,5.51-26.09,1.82.03,6.1,2.76,6.78,4.61Z"/>
  <path class="cls-1" d="M1361.1,275.04c3.76,15.02,0,26.74-6.18,25.99-7.61-.92-10.04-14.13-6.34-26.24.53-1.75,4.6-4.61,6.41-4.6s5.66,3.08,6.11,4.85Z"/>
  <polygon class="cls-1" points="555.12 1643.48 543.74 1644.19 554.7 1628.03 555.12 1643.48"/>
  <polygon class="cls-1" points="264.32 1359.72 252.85 1359.26 263.47 1343.7 264.32 1359.72"/>
  <polygon class="cls-1" points="526.81 290.61 514.67 289.87 525.48 275.12 526.81 290.61"/>
  <path d="M937.07,645.08l-125.78-74.02c-5.12-3.18-8.31-7.11-8.87-12.95l.05-143.24,132.97-76.68,133.95,76.99-.02,144.97c-1.25,3.6-3.4,6.78-6.23,9.16l-126.06,75.76Z"/>
  <path d="M1218.88,806.94l-132.27,76.45c-15.06-18.34-29.86-33.04-48.01-46.02-27.09-17.02-55.7-28.15-88.13-34.69l.16-144.79,132.81-75.62,135.1,75.57.33,149.09Z"/>
  <path d="M801.64,1328.59c-5.84,3.37-10.83,2.8-16.03-.03l-120.06-70.14c-2.33-3.72-4.57-9.71-4.58-14.32l-.32-106.87,1.15-27.24,77.15-45.2,54.64-30.05c27.15,44.28,76.77,67.2,123.72,84.07,2.74.98,6.82,4.98,8.62,7.54l.11,117.71c-.67,4.67-2.41,11.56-4.55,15.47l-119.85,69.06Z"/>
  <path d="M774.31,571.7l-127.46,74.44-127.38-73.27c-5.82-3.55-9.72-8.14-10.14-14.78l.02-143.44,136.2-78.13,136.39,79.11.52,146.49c-1.56,3.55-4.2,6.52-8.15,9.57ZM650.55,423.56l-.76-26.69c-.31-2.15-8.84-.49-8.86,1.81l-.2,23.59c-.02,1.9,2.46,5.22,4.19,5.93,1.39.57,5.68-3,5.63-4.65ZM594.28,447.08c1.09,1.08,6.46.42,6.97-1.02s.16-5.65-.92-6.72l-15.09-14.92c-1.18-1.17-5.3-1.85-6.56-.83s-2.09,6.01-.98,7.11l16.58,16.4ZM697.83,446.39l15.01-14.95c1.3-1.29,1.04-7.8-.7-8.24s-5.9.42-7.29,1.83l-14.62,14.82c-1.19,1.2-.57,7.07,1.01,7.7,1.19.48,5.55-.12,6.59-1.16ZM687.96,522.76c11.9-14.97,14.44-34.98,7.31-51.97-8.34-19.88-26.81-31.83-46.42-32.87-20.67-1.1-39.44,8.24-50.37,26.77-14.3,24.24-5.64,55.53,17.22,70.41s53.69,11.02,72.27-12.33ZM575.56,495.7c2.43-.01,6.16-4.91,5-6.59-.93-1.35-4.53-3.16-6.55-3.16l-18.16.03c-2.16,0-6.2,3.09-6.18,5.05s3.93,4.79,5.93,4.78l19.96-.11ZM737.12,495.62c1.79,0,5.22-4.46,4.19-5.83-.83-1.1-4.26-3.84-5.63-3.83l-21.45.16c-1.98.01-4.99,5.01-4,6.6.79,1.27,4.05,2.97,5.63,2.97l21.25-.06ZM584.85,558.41l15.67-15.67c1.45-1.45,1.64-7.03-.12-7.66-1.41-.51-5.62-.03-6.7,1.01l-15.06,14.58c-1.32,1.28-1.85,5.55-1.17,7.11s6.15,1.86,7.37.63ZM711.96,550.86l-15.3-15.15c-1.37-1.36-6.81-1.23-7.5.43-.55,1.32-.36,5.56.68,6.59l16.55,16.34c1.09,1.08,6.28.5,6.86-.92s.02-6.01-1.29-7.3ZM650.52,580.96l.11-23.09c0-1.75-3.89-5.49-5.49-4.89s-4.25,3.96-4.24,5.83l.03,22.25c0,1.59,2.78,4.7,4.15,5.39s5.44-3.63,5.45-5.49Z"/>
  <path d="M656.89,1571.6c-5.98,3.43-11.02,5.18-16.47,2.03l-122.97-70.97c-4.59-2.65-7.81-9.28-7.82-14.56l-.13-136.18c1.23-3.85,3.49-7.26,6.58-10.12l128.84-74.74,137.16,79.57.39,143.43c.02,5.62-3.86,11.24-8.33,14.25l-117.26,67.3ZM651.73,1351.3l-.56-20.34c-.05-1.91-6.18-3.92-7.71-2.74-1.22.94-3.06,4.16-3.06,5.88v17.88c0,2.21,4.15,6.25,6.28,5.87,1.77-.32,5.11-4.61,5.05-6.54ZM601.82,1367.66l-13.59-13.8c-1.54-1.57-7.34-1.12-8.51.62-.98,1.46-.77,6.18.55,7.52l13.75,14.01c1.5,1.53,7.11.98,8.25-.7.95-1.41.77-6.41-.45-7.65ZM697.94,1375.33l13.3-13.86c1.46-1.52.94-7.74-.91-8.55-1.48-.65-5.99-.39-7.11.76l-14.35,14.72c-1.3,1.33-.42,7.55,1.24,8.38s6.35.07,7.82-1.46ZM637.97,1367.43c-31.13,4.41-49.71,33.72-44.63,62.52,4.95,28.03,32.24,47.98,61.04,43.24,28.55-4.7,48.97-31.72,44.4-61.15-4.26-27.4-30.45-48.92-60.81-44.61ZM579.09,1426.2c2.43-.05,5.35-6.78,3.85-8.26-1.24-1.23-5.05-3.21-7.03-3.2l-17.8.1c-2.22.01-5.73,3.8-5.59,5.92.12,1.76,3.74,5.87,5.55,5.84l21.02-.4ZM735.22,1426.16c2.26-.05,5.14-6.5,3.68-7.98-1.22-1.23-5.11-3.52-7.05-3.5l-17.63.19c-2.34.03-5.81,3.77-5.7,5.91.09,1.78,3.74,5.93,5.63,5.88l21.08-.5ZM588.3,1486.81l13.33-13.68c1.66-1.7,1.62-6.79-.09-8.15-1.43-1.14-6.99-.84-8.37.6l-13.33,13.92c-1.47,1.53-1.34,6.61.09,8.01,1.15,1.12,6.92.8,8.39-.7ZM711.66,1479.64l-14.27-14.48c-1.53-1.55-7.6-1.13-8.36.67-.61,1.44-.73,6.14.37,7.25l14.49,14.57c1.36,1.37,8.52.71,9.03-1.16.41-1.49-.17-5.75-1.26-6.86ZM651.63,1509.11l.21-19.62c.03-2.45-4.3-6.6-6.63-6.11-1.94.4-4.94,4.37-4.91,6.65l.25,19.89c.03,2.12,4.04,5.8,6.1,5.49,1.72-.27,4.96-4.19,4.98-6.29Z"/>
  <path d="M1367.71,567.12l-137.44,77.92-128.91-74.08c-5.51-3.27-8.53-7.74-8.97-13.99l-.28-141.68,137.57-78.62,135.85,78.44,3.33,32.96-1.15,119.05ZM1287.16,511.79c12.99.02,23.58-5.65,30.33-13.64,7.37-8.72,10.1-21.08,6.52-32.41-6.4-20.25-26.99-30.11-47.67-25.31-9.07-22.95-29.56-35.72-52.81-33.49-21.6,2.07-38.54,17.78-44.34,40.49-20.84-4.31-38.13,9.62-40.78,27.75s11.52,36.36,31.52,36.4l117.23.21ZM1180.39,561.45l11.5-26.81c.61-1.43-2-6.27-3.29-5.89s-4.37,1.99-4.98,3.51l-10.65,26.26c-.56,1.39.67,5.53,2.11,5.4,1.08-.1,4.89-1.47,5.31-2.47ZM1228.09,568.94l13.62-32.87c.55-1.32-1.39-6.2-2.78-5.87-1.04.25-4.24,1.95-4.67,2.98l-13.71,32.77c-.58,1.38,1.12,6.08,2.51,5.79,1.04-.22,4.61-1.78,5.04-2.8ZM1278.1,555.42l6.85-20.35c.52-1.55-.27-6.03-1.86-5.82-1.19.16-5.38,1.72-5.76,2.86l-7.25,21.47c-.44,1.3,1.85,6.51,3.19,6.09s4.3-2.67,4.84-4.26ZM1214.75,537.66l-7.25,20.17c6.08-.11,12.08-17.79,7.25-20.17ZM1254.4,541.6l-6.04,18.87c7.01-2.81,11.27-17.39,6.04-18.87Z"/>
  <path d="M1359.62,1502.8l-129.59,73.64-21.59-10.97-100.89-58.91c-6.48-3.79-15.22-8.61-15.23-17.16l-.2-135.39c0-3.78,2.88-9.97,6.16-11.87l128.07-74.31c8,1.68,13.98,4.99,20.85,9.01l117.38,68.61c3.69,14.71,2.19,27.88,2.2,42.53l.05,100.12c0,4.93-2.31,11.9-7.2,14.69ZM1293.11,1441.96c16.07-.03,28.17-13.15,31.55-24.32,4.62-15.27-.39-29.01-11.55-38.78s-24.26-10.29-38.21-8.66c-8.8-21.61-29.46-34.27-51.67-32.05-20.43,2.05-39.05,17.52-43.68,39.73-14.52-1.72-28.16,3.32-36.11,15.54-6.53,10.04-7.2,22.55-1.17,32.92,5.19,8.93,15.47,15.88,27.7,15.86l123.13-.25ZM1183.84,1489.66l9.1-20.94c.83-1.91-1.04-6.99-2.94-7.66s-6.69,1.38-7.73,3.5l-9.8,19.92c-1.07,2.18,1.05,7.9,3.12,8.67s7.33-1.38,8.24-3.49ZM1273.13,1491.74l9.98-22.69c.87-1.97-1.08-7.22-2.99-8.06s-7.08,1.14-8.01,3.24l-9.14,20.54c-.77,1.74.61,6.23,1.63,7.8s7.6,1.31,8.53-.82ZM1227.74,1511.01l11.37-40.2c-.89-1.68-2.94-4.18-4.24-4.98s-5.77,1.52-6.75,3.18l-18.22,30.76c-3.13,5.28-.98,12.14,2.71,14.61,4.44,2.97,13.29,3.14,15.13-3.37Z"/>
  <path d="M1038.87,958.59c-.37,23.73-19.41,61.92-31.45,59.29-3.56-.78-7.4-8.11-5.16-10.79,12.48-14.92,20.22-29.93,22.08-48.74l-20.6.05c-1.92,22.75-15.71,39.97-37.44,49.38l30.12,65.96c-.26,5.8-14.38,9.77-16.69,4.99l-12.06-24.98-70.38,31.38c-2.17.97-7.97-.33-10-1.49s-4.13-6.91-2.99-9.55l28.74-66.57c-20.88-9.38-34.21-26.35-36.98-49.33l-19.48.85c1.53,17.74,8.9,32.64,20.34,46.25,1.91,2.27.67,8.97-1.77,10.78-11.74,8.7-33.03-31.13-33.92-57.09l-19.58-.71c1.82,26.71,11.4,50.78,29.74,70.54.57,3.2.36,8.52-1.47,10.28-2.21,2.13-8.98,1.08-11.61-1.48-44.18-49.79-42.27-123.97,1.78-173.64,3.12-1.11,7.55-1.62,9.67-.49s2.63,7.13,1.93,9.87c-16.78,20.69-28.4,43.13-29.55,69.87l19.14.09c1.49-22.13,9.99-39.75,23.04-57.18l9.62.81c2.55.21,2.62,8.23,1.1,10.39-9.38,13.3-18.06,28.9-18.45,45.56l19.69.45c3.17-20.6,16.41-36.87,31.8-45.22,20.69-11.23,41.59-10.78,61.33-1.63s32.27,25.57,34.82,47l19.92-.12c-.25-16.81-8.56-34.02-19.14-45.94-1.85-2.08-1.27-8.71.25-10.55,10.57-12.69,33.19,28.52,34.42,56.77l18.18-.38c-1.04-25.32-13.48-50.65-28.81-69.59-1.58-1.95.75-7.78,2.49-8.95s7.32-2.52,8.76-.88c43.06,48.91,44.71,124.28.93,173.2-2.02,2.26-7.57,3.46-9.95,2.84-2.78-.72-4.53-8.68-2.64-11.05,16.46-20.54,27.55-41.96,29.5-69.82l-19.28-.4ZM939.18,998.1c29.14.48,52.89-23.06,49.96-51.25-2.47-23.71-22.63-39.75-44.81-41.92-21.75-2.13-42.85,10.95-50.88,32.5-5.48,14.71-1.59,30.61,8.33,43.06,7.85,9.85,20.86,17.34,37.4,17.61ZM959.25,1033.48l-7.69-19.72-22.22-.08-8.61,19.79h38.52ZM944.66,1048.8l-30.21-.94-6.45,16.75,36.66-15.8Z"/>
  <path d="M947.31,1265.87c-4.91,2.3-7.54-3.24-7.3-7.93l.04-129.09,1.6-4.2c.33-.87,2.89-.93,5.62-.8l.04,142.02Z"/>
  <path d="M635.99,1136.45c-6.46-2.89-8.53-7.04-7.01-13.14l7.01,13.14Z"/>
  <path class="cls-1" d="M687.96,522.76c-18.57,23.35-49.08,27.43-72.27,12.33s-31.52-46.17-17.22-70.41c10.93-18.53,29.7-27.87,50.37-26.77,19.61,1.04,38.09,13,46.42,32.87,7.13,16.99,4.59,37.01-7.31,51.97ZM645.03,531.16c27.43.15,45.7-24.68,40.65-49.45-4.72-23.11-29.75-37.65-53.66-29.67-18.91,6.31-31.01,25.54-27.87,44.62s19.14,34.38,40.88,34.49Z"/>
  <path class="cls-1" d="M697.83,446.39c-1.04,1.04-5.4,1.64-6.59,1.16-1.58-.64-2.19-6.5-1.01-7.7l14.62-14.82c1.39-1.4,5.55-2.27,7.29-1.83s2,6.95.7,8.24l-15.01,14.95Z"/>
  <path class="cls-1" d="M650.55,423.56c.05,1.65-4.24,5.22-5.63,4.65-1.73-.71-4.2-4.03-4.19-5.93l.2-23.59c.02-2.3,8.55-3.97,8.86-1.81l.76,26.69Z"/>
  <path class="cls-1" d="M711.96,550.86c1.31,1.29,1.86,5.88,1.29,7.3s-5.77,2-6.86.92l-16.55-16.34c-1.04-1.03-1.23-5.27-.68-6.59.69-1.66,6.13-1.79,7.5-.43l15.3,15.15Z"/>
  <path class="cls-1" d="M650.52,580.96c0,1.86-4.07,6.18-5.45,5.49s-4.14-3.8-4.15-5.39l-.03-22.25c0-1.87,2.63-5.23,4.24-5.83s5.5,3.14,5.49,4.89l-.11,23.09Z"/>
  <path class="cls-1" d="M584.85,558.41c-1.23,1.23-6.7.92-7.37-.63s-.15-5.83,1.17-7.11l15.06-14.58c1.07-1.04,5.29-1.51,6.7-1.01,1.76.63,1.56,6.21.12,7.66l-15.67,15.67Z"/>
  <path class="cls-1" d="M594.28,447.08l-16.58-16.4c-1.11-1.1-.28-6.09.98-7.11s5.38-.33,6.56.83l15.09,14.92c1.09,1.07,1.44,5.28.92,6.72s-5.88,2.1-6.97,1.02Z"/>
  <path class="cls-1" d="M737.12,495.62l-21.25.06c-1.58,0-4.85-1.7-5.63-2.97-.99-1.58,2.02-6.58,4-6.6l21.45-.16c1.36-.01,4.8,2.73,5.63,3.83,1.03,1.37-2.4,5.83-4.19,5.83Z"/>
  <path class="cls-1" d="M575.56,495.7l-19.96.11c-2,.01-5.91-2.82-5.93-4.78s4.01-5.05,6.18-5.05l18.16-.03c2.02,0,5.62,1.81,6.55,3.16,1.17,1.69-2.57,6.58-5,6.59Z"/>
  <path class="cls-1" d="M637.97,1367.43c30.36-4.31,56.56,17.22,60.81,44.61,4.57,29.43-15.85,56.45-44.4,61.15-28.8,4.74-56.09-15.21-61.04-43.24-5.09-28.8,13.5-58.11,44.63-62.52ZM651.12,1460.66c23.44-2.95,38.51-24.62,35.63-45.56s-22.07-37.61-44.73-35.47-39.63,23.06-37.19,44.71c2.52,22.37,21.75,39.41,46.29,36.32Z"/>
  <path class="cls-1" d="M651.63,1509.11c-.02,2.1-3.26,6.02-4.98,6.29-2.06.32-6.07-3.37-6.1-5.49l-.25-19.89c-.03-2.28,2.97-6.25,4.91-6.65,2.33-.48,6.65,3.66,6.63,6.11l-.21,19.62Z"/>
  <path class="cls-1" d="M711.66,1479.64c1.09,1.11,1.67,5.37,1.26,6.86-.51,1.86-7.67,2.53-9.03,1.16l-14.49-14.57c-1.1-1.11-.98-5.81-.37-7.25.76-1.8,6.83-2.22,8.36-.67l14.27,14.48Z"/>
  <path class="cls-1" d="M601.82,1367.66c1.22,1.24,1.4,6.24.45,7.65-1.14,1.68-6.75,2.23-8.25.7l-13.75-14.01c-1.32-1.35-1.53-6.06-.55-7.52,1.17-1.74,6.97-2.19,8.51-.62l13.59,13.8Z"/>
  <path class="cls-1" d="M579.09,1426.2l-21.02.4c-1.8.03-5.43-4.07-5.55-5.84-.14-2.12,3.37-5.91,5.59-5.92l17.8-.1c1.98-.01,5.79,1.97,7.03,3.2,1.5,1.48-1.42,8.21-3.85,8.26Z"/>
  <path class="cls-1" d="M735.22,1426.16l-21.08.5c-1.89.05-5.54-4.1-5.63-5.88-.1-2.14,3.36-5.88,5.7-5.91l17.63-.19c1.94-.02,5.84,2.26,7.05,3.5,1.46,1.48-1.42,7.93-3.68,7.98Z"/>
  <path class="cls-1" d="M651.73,1351.3c.05,1.93-3.28,6.22-5.05,6.54-2.13.38-6.28-3.66-6.28-5.87v-17.88c0-1.72,1.84-4.94,3.07-5.88,1.53-1.17,7.65.83,7.71,2.74l.56,20.34Z"/>
  <path class="cls-1" d="M697.94,1375.33c-1.47,1.53-6.16,2.29-7.82,1.46s-2.54-7.05-1.24-8.38l14.35-14.72c1.12-1.15,5.64-1.41,7.11-.76,1.84.81,2.36,7.03.91,8.55l-13.3,13.86Z"/>
  <path class="cls-1" d="M588.3,1486.81c-1.46,1.5-7.24,1.82-8.39.7-1.43-1.4-1.56-6.47-.09-8.01l13.33-13.92c1.38-1.44,6.94-1.74,8.37-.6,1.71,1.36,1.75,6.44.09,8.15l-13.33,13.68Z"/>
  <path class="cls-1" d="M1287.16,511.79l-117.23-.21c-20-.04-34.24-17.84-31.52-36.4s19.95-32.06,40.78-27.75c5.8-22.72,22.75-38.42,44.34-40.49,23.25-2.23,43.73,10.54,52.81,33.49,20.68-4.8,41.26,5.06,47.67,25.31,3.58,11.33.85,23.68-6.52,32.41-6.75,7.99-17.34,13.66-30.33,13.64Z"/>
  <path class="cls-1" d="M1228.09,568.94c-.43,1.03-4,2.59-5.04,2.8-1.39.29-3.08-4.41-2.51-5.79l13.71-32.77c.43-1.04,3.63-2.73,4.67-2.98,1.39-.33,3.33,4.54,2.78,5.87l-13.62,32.87Z"/>
  <path class="cls-1" d="M1180.39,561.45c-.43,1-4.23,2.37-5.31,2.47-1.44.13-2.67-4.01-2.11-5.4l10.65-26.26c.62-1.52,3.71-3.13,4.98-3.51s3.9,4.46,3.29,5.89l-11.5,26.81Z"/>
  <path class="cls-1" d="M1278.1,555.42c-.54,1.59-3.5,3.84-4.84,4.26s-3.63-4.8-3.19-6.09l7.25-21.47c.39-1.14,4.57-2.7,5.76-2.86,1.59-.22,2.38,4.27,1.86,5.82l-6.85,20.35Z"/>
  <path class="cls-1" d="M1214.75,537.66c4.82,2.38-1.17,20.06-7.25,20.17l7.25-20.17Z"/>
  <path class="cls-1" d="M1254.4,541.6c5.23,1.48.98,16.06-6.04,18.87l6.04-18.87Z"/>
  <path class="cls-1" d="M1293.11,1441.96l-123.13.25c-12.23.03-22.51-6.92-27.7-15.86-6.02-10.36-5.36-22.88,1.17-32.92,7.95-12.23,21.59-17.26,36.11-15.54,4.63-22.21,23.25-37.69,43.68-39.73,22.21-2.23,42.88,10.44,51.67,32.05,13.94-1.64,27.45-.76,38.21,8.66s16.17,23.51,11.55,38.78c-3.38,11.16-15.48,24.28-31.55,24.32Z"/>
  <path class="cls-1" d="M1227.74,1511.01c-1.84,6.51-10.69,6.34-15.13,3.37-3.69-2.46-5.84-9.32-2.71-14.61l18.22-30.76c.98-1.66,5.45-3.97,6.75-3.18s3.35,3.3,4.24,4.98l-11.37,40.2Z"/>
  <path class="cls-1" d="M1273.13,1491.74c-.94,2.13-7.52,2.37-8.53.82s-2.41-6.06-1.63-7.8l9.14-20.54c.93-2.1,6.09-4.08,8.01-3.24s3.86,6.09,2.99,8.06l-9.98,22.69Z"/>
  <path class="cls-1" d="M1183.84,1489.66c-.92,2.11-6.17,4.25-8.24,3.49s-4.2-6.49-3.12-8.67l9.8-19.92c1.04-2.12,5.83-4.17,7.73-3.5s3.77,5.75,2.94,7.66l-9.1,20.94Z"/>
  <path class="cls-1" d="M939.18,998.1c-16.54-.27-29.55-7.76-37.4-17.61-9.92-12.46-13.82-28.35-8.33-43.06,8.03-21.54,29.13-34.62,50.88-32.5,22.18,2.17,42.34,18.21,44.81,41.92,2.93,28.19-20.82,51.73-49.96,51.25ZM941.04,990.42c24.01-.66,40.41-19.58,39.07-41.17-1.31-21.25-17.64-36.51-40.19-36.61-22.67-.1-40.29,16.81-40.29,38.5,0,21.58,17.25,39.94,41.4,39.28Z"/>
  <polygon class="cls-1" points="959.25 1033.48 920.74 1033.47 929.34 1013.68 951.57 1013.76 959.25 1033.48"/>
  <polygon class="cls-1" points="944.66 1048.8 908 1064.6 914.45 1047.86 944.66 1048.8"/>
  <path d="M645.03,531.16c-21.75-.12-37.79-15.68-40.88-34.49s8.96-38.31,27.87-44.62c23.91-7.98,48.94,6.56,53.66,29.67,5.06,24.77-13.21,49.59-40.65,49.45Z"/>
  <path d="M651.12,1460.66c-24.54,3.09-43.77-13.95-46.29-36.32-2.44-21.65,13.64-42.49,37.19-44.71s41.78,14.01,44.73,35.47-12.2,42.61-35.63,45.56Z"/>
  <path d="M941.04,990.42c-24.15.67-41.4-17.69-41.4-39.28,0-21.69,17.62-38.6,40.29-38.5,22.55.1,38.87,15.36,40.19,36.61,1.34,21.59-15.07,40.51-39.07,41.17ZM950.68,928.91c-5.62,3.3-5.76,12.3-2.5,16.25,3.68,4.46,11.39,4.94,15.86,1.73,3.85-2.76,4.9-10.76,2.62-14.62-2.88-4.88-10.74-6.44-15.98-3.36Z"/>
  <path class="cls-1" d="M950.68,928.91c5.24-3.08,13.1-1.53,15.98,3.36,2.28,3.87,1.23,11.86-2.62,14.62-4.48,3.22-12.19,2.74-15.86-1.73-3.26-3.95-3.11-12.95,2.5-16.25Z"/>
</svg>