<svg viewBox="0 0 256 256" xmlns="http://www.w3.org/2000/svg">
  <defs>
    <style>
      .ink { fill: #1e232a; }
      .line { stroke: #1e232a; }
      .grid { stroke: #cfd6df; stroke-width: 1.2; fill: none; }
      .paper { fill: #f7f9fc; }
      .mid { fill: #4a5564; }
      .dark { fill: #2a323d; }
    </style>
  </defs>

  <rect width="256" height="256" class="paper"/>
  <g transform="translate(128 120)">
    <circle r="88" class="grid"/>
    <circle r="72" class="grid"/>
    <circle r="56" class="grid"/>
    <circle r="40" class="grid"/>
    <line x1="-88" y1="0" x2="88" y2="0" class="grid"/>
    <line x1="0" y1="-88" x2="0" y2="88" class="grid"/>
    <line x1="-62" y1="-62" x2="62" y2="62" class="grid"/>
    <line x1="62" y1="-62" x2="-62" y2="62" class="grid"/>

    <g transform="translate(0,0)">
      <circle r="11" class="paper" stroke="#1e232a" stroke-width="2"/>
      <circle r="5" class="ink"/>
      <line x1="-14" y1="0" x2="14" y2="0" class="line" stroke-width="2"/>
      <line x1="0" y1="-14" x2="0" y2="14" class="line" stroke-width="2"/>
      <path d="M0 -20 L5 -11 L0 -13 L-5 -11 Z" class="ink"/>
    </g>

    <g transform="translate(-44,-58)">
      <polygon points="0,-16 14,-8 14,8 0,16 -14,8 -14,-8" class="dark"/>
      <circle r="4.5" fill="#f7f9fc"/>
      <line x1="0" y1="-9" x2="0" y2="-6" stroke="#f7f9fc" stroke-width="1.4"/>
      <line x1="0" y1="9" x2="0" y2="6" stroke="#f7f9fc" stroke-width="1.4"/>
      <line x1="-9" y1="0" x2="-6" y2="0" stroke="#f7f9fc" stroke-width="1.4"/>
      <line x1="9" y1="0" x2="6" y2="0" stroke="#f7f9fc" stroke-width="1.4"/>
    </g>

    <g transform="translate(0,-69)">
      <polygon points="0,-16 14,-8 14,8 0,16 -14,8 -14,-8" class="mid"/>
    </g>

    <g transform="translate(44,-58)">
      <polygon points="0,-16 14,-8 14,8 0,16 -14,8 -14,-8" class="dark"/>
      <path d="M-8 -1 C-7 -6 -1 -8 3 -5 C5 -8 10 -6 9 -1 C8 3 4 3 1 3 L-7 3 C-9 3 -9 1 -8 -1 Z" fill="#f7f9fc"/>
      <line x1="-4" y1="6" x2="-2" y2="10" stroke="#f7f9fc" stroke-width="1.4"/>
      <line x1="0" y1="6" x2="2" y2="10" stroke="#f7f9fc" stroke-width="1.4"/>
      <line x1="4" y1="6" x2="6" y2="10" stroke="#f7f9fc" stroke-width="1.4"/>
    </g>

    <g transform="translate(-66,44)">
      <polygon points="0,-16 14,-8 14,8 0,16 -14,8 -14,-8" class="dark"/>
      <circle r="4.5" fill="#f7f9fc"/>
      <line x1="0" y1="-9" x2="0" y2="-6" stroke="#f7f9fc" stroke-width="1.4"/>
      <line x1="0" y1="9" x2="0" y2="6" stroke="#f7f9fc" stroke-width="1.4"/>
      <line x1="-9" y1="0" x2="-6" y2="0" stroke="#f7f9fc" stroke-width="1.4"/>
      <line x1="9" y1="0" x2="6" y2="0" stroke="#f7f9fc" stroke-width="1.4"/>
    </g>

    <g transform="translate(-22,52)">
      <polygon points="0,-16 14,-8 14,8 0,16 -14,8 -14,-8" class="mid"/>
    </g>

    <g transform="translate(22,52)">
      <polygon points="0,-16 14,-8 14,8 0,16 -14,8 -14,-8" class="dark"/>
      <path d="M-8 -1 C-7 -6 -1 -8 3 -5 C5 -8 10 -6 9 -1 C8 3 4 3 1 3 L-7 3 C-9 3 -9 1 -8 -1 Z" fill="#f7f9fc"/>
      <line x1="-4" y1="6" x2="-2" y2="10" stroke="#f7f9fc" stroke-width="1.4"/>
      <line x1="0" y1="6" x2="2" y2="10" stroke="#f7f9fc" stroke-width="1.4"/>
      <line x1="4" y1="6" x2="6" y2="10" stroke="#f7f9fc" stroke-width="1.4"/>
    </g>
  </g>
</svg>